<svg height="512" viewBox="0 0 128 128" width="512" xmlns="http://www.w3.org/2000/svg"><g id="number"><text fill="#24253a" font-family="MyriadPro-Regular, Myriad Pro" font-size="40" letter-spacing=".002em" transform="translate(61.012 -738.265)">8<tspan x="-10.3" y="228">18</tspan><tspan x="-10.3" y="456">28</tspan><tspan x="-10.3" y="684">38</tspan><tspan x="-10.3" y="912">48</tspan><tspan x="-10.3" y="1140">58</tspan><tspan x="-10.3" y="1368">68</tspan><tspan x="-10.3" y="1596">78</tspan><tspan x="-10.3" y="1824">88</tspan><tspan x="-10.3" y="2052">98</tspan><tspan x="-20.599" y="2280">108</tspan><tspan x="-20.599" y="2508">118</tspan><tspan x="-20.599" y="2736">128</tspan><tspan x="-20.599" y="2964">138</tspan><tspan x="-20.599" y="3192">148</tspan><tspan x="-20.599" y="3420">158</tspan><tspan x="-20.599" y="3648">168</tspan><tspan x="-20.599" y="3876">178</tspan><tspan x="-20.599" y="4104">188</tspan><tspan x="-20.599" y="4332">198</tspan><tspan x="-20.599" y="4560">208</tspan><tspan x="-20.599" y="4788">218</tspan><tspan x="-20.599" y="5016">228</tspan><tspan x="-20.599" y="5244">238</tspan><tspan x="-20.599" y="5472">248</tspan></text></g><g id="Circle_Grid" data-name="Circle Grid"><circle cx="64" cy="64" fill="#f6c863" r="64"/></g><g id="icon"><path d="m29.587 36.85h68.83a1.645 1.645 0 0 1 1.645 1.645v48.54a0 0 0 0 1 0 0h-72.12a0 0 0 0 1 0 0v-48.535a1.645 1.645 0 0 1 1.645-1.65z" fill="#575b6d"/><path d="m45.08 27.939h37.845v63.894h-37.845z" fill="#69b0ee" transform="matrix(0 1 -1 0 123.889 -4.116)"/><path d="m105 83.922v1.609a5.618 5.618 0 0 1 -1.645 3.972 5.618 5.618 0 0 1 -3.972 1.645h-70.783a5.572 5.572 0 0 1 -3.944-1.636l-.03-.03a5.572 5.572 0 0 1 -1.626-3.934v-1.626a1 1 0 0 1 1-1h31.983a.411.411 0 0 1 .411.411 3.291 3.291 0 0 0 3.291 3.291h8.639a3.291 3.291 0 0 0 3.291-3.291.411.411 0 0 1 .411-.411h31.974a1 1 0 0 1 1 1z" fill="#414451"/><g fill="#eeefee"><path d="m77.172 40.96-13.125 37.85h-1.74l13.125-37.85z" opacity=".5"/><path d="m70.196 40.96-13.125 37.85h-6.243l13.125-37.85z" opacity=".5"/></g></g></svg>